<mxfile host="app.diagrams.net" modified="2024-02-28T15:53:53.099Z" agent="Mozilla/5.0 (Windows NT 10.0; Win64; x64) AppleWebKit/537.36 (KHTML, like Gecko) Chrome/121.0.0.0 Safari/537.36" etag="wtVRx4dP2V2o7qIUv8yR" version="23.1.7" type="github">
  <diagram name="第 1 页" id="_XbAmeb6i6jMnhbbcmUG">
    <mxGraphModel dx="724" dy="396" grid="1" gridSize="10" guides="1" tooltips="1" connect="1" arrows="1" fold="1" page="1" pageScale="1" pageWidth="827" pageHeight="1169" math="0" shadow="0">
      <root>
        <mxCell id="0" />
        <mxCell id="1" parent="0" />
        <mxCell id="0EOOm2tPZXN1vuOqis5f-53" value="" style="rounded=0;whiteSpace=wrap;html=1;" vertex="1" parent="1">
          <mxGeometry x="446" y="199" width="175" height="90" as="geometry" />
        </mxCell>
        <mxCell id="0EOOm2tPZXN1vuOqis5f-1" value="" style="ellipse;whiteSpace=wrap;html=1;aspect=fixed;" vertex="1" parent="1">
          <mxGeometry x="140" y="210" width="80" height="80" as="geometry" />
        </mxCell>
        <mxCell id="0EOOm2tPZXN1vuOqis5f-2" value="" style="ellipse;whiteSpace=wrap;html=1;aspect=fixed;fillStyle=auto;fillColor=#FF0000;" vertex="1" parent="1">
          <mxGeometry x="166.5" y="217" width="20" height="20" as="geometry" />
        </mxCell>
        <mxCell id="0EOOm2tPZXN1vuOqis5f-3" value="" style="ellipse;whiteSpace=wrap;html=1;aspect=fixed;fillStyle=auto;fillColor=#FF0000;" vertex="1" parent="1">
          <mxGeometry x="146.5" y="247" width="20" height="20" as="geometry" />
        </mxCell>
        <mxCell id="0EOOm2tPZXN1vuOqis5f-4" value="" style="ellipse;whiteSpace=wrap;html=1;aspect=fixed;fillStyle=auto;fillColor=#FF0000;" vertex="1" parent="1">
          <mxGeometry x="193.5" y="234" width="20" height="20" as="geometry" />
        </mxCell>
        <mxCell id="0EOOm2tPZXN1vuOqis5f-6" value="" style="ellipse;whiteSpace=wrap;html=1;aspect=fixed;fillStyle=auto;fillColor=#FF0000;" vertex="1" parent="1">
          <mxGeometry x="173.5" y="263" width="20" height="20" as="geometry" />
        </mxCell>
        <mxCell id="0EOOm2tPZXN1vuOqis5f-7" value="" style="ellipse;whiteSpace=wrap;html=1;aspect=fixed;" vertex="1" parent="1">
          <mxGeometry x="240" y="210" width="80" height="80" as="geometry" />
        </mxCell>
        <mxCell id="0EOOm2tPZXN1vuOqis5f-12" value="" style="triangle;whiteSpace=wrap;html=1;rotation=25;fillColor=#FF3333;container=0;" vertex="1" parent="1">
          <mxGeometry x="258" y="219.25" width="20" height="27" as="geometry" />
        </mxCell>
        <mxCell id="0EOOm2tPZXN1vuOqis5f-13" value="" style="triangle;whiteSpace=wrap;html=1;rotation=25;fillColor=#FF3333;container=0;" vertex="1" parent="1">
          <mxGeometry x="288" y="229.75" width="20" height="27" as="geometry" />
        </mxCell>
        <mxCell id="0EOOm2tPZXN1vuOqis5f-14" value="" style="triangle;whiteSpace=wrap;html=1;rotation=25;fillColor=#FF3333;container=0;" vertex="1" parent="1">
          <mxGeometry x="258" y="247.5" width="20" height="27" as="geometry" />
        </mxCell>
        <mxCell id="0EOOm2tPZXN1vuOqis5f-15" value="" style="triangle;whiteSpace=wrap;html=1;rotation=25;fillColor=#FF3333;container=0;" vertex="1" parent="1">
          <mxGeometry x="288" y="258" width="20" height="27" as="geometry" />
        </mxCell>
        <mxCell id="0EOOm2tPZXN1vuOqis5f-18" value="" style="ellipse;whiteSpace=wrap;html=1;aspect=fixed;" vertex="1" parent="1">
          <mxGeometry x="340" y="210" width="80" height="80" as="geometry" />
        </mxCell>
        <mxCell id="0EOOm2tPZXN1vuOqis5f-19" value="" style="rhombus;whiteSpace=wrap;html=1;fillColor=#FF0000;" vertex="1" parent="1">
          <mxGeometry x="359" y="219.25" width="20" height="20" as="geometry" />
        </mxCell>
        <mxCell id="0EOOm2tPZXN1vuOqis5f-23" value="" style="rhombus;whiteSpace=wrap;html=1;fillColor=#FF0000;" vertex="1" parent="1">
          <mxGeometry x="385" y="229.25" width="20" height="20" as="geometry" />
        </mxCell>
        <mxCell id="0EOOm2tPZXN1vuOqis5f-24" value="" style="rhombus;whiteSpace=wrap;html=1;fillColor=#FF0000;" vertex="1" parent="1">
          <mxGeometry x="355" y="247.5" width="20" height="20" as="geometry" />
        </mxCell>
        <mxCell id="0EOOm2tPZXN1vuOqis5f-25" value="" style="rhombus;whiteSpace=wrap;html=1;fillColor=#FF0000;" vertex="1" parent="1">
          <mxGeometry x="380" y="257.5" width="20" height="20" as="geometry" />
        </mxCell>
        <mxCell id="0EOOm2tPZXN1vuOqis5f-27" style="edgeStyle=orthogonalEdgeStyle;rounded=0;orthogonalLoop=1;jettySize=auto;html=1;exitX=0.5;exitY=1;exitDx=0;exitDy=0;entryX=0.5;entryY=0;entryDx=0;entryDy=0;" edge="1" parent="1" source="0EOOm2tPZXN1vuOqis5f-26" target="0EOOm2tPZXN1vuOqis5f-1">
          <mxGeometry relative="1" as="geometry">
            <Array as="points">
              <mxPoint x="180" y="190" />
            </Array>
          </mxGeometry>
        </mxCell>
        <mxCell id="0EOOm2tPZXN1vuOqis5f-28" style="edgeStyle=orthogonalEdgeStyle;rounded=0;orthogonalLoop=1;jettySize=auto;html=1;exitX=0.5;exitY=1;exitDx=0;exitDy=0;entryX=0.5;entryY=0;entryDx=0;entryDy=0;" edge="1" parent="1" source="0EOOm2tPZXN1vuOqis5f-26" target="0EOOm2tPZXN1vuOqis5f-7">
          <mxGeometry relative="1" as="geometry" />
        </mxCell>
        <mxCell id="0EOOm2tPZXN1vuOqis5f-29" style="edgeStyle=orthogonalEdgeStyle;rounded=0;orthogonalLoop=1;jettySize=auto;html=1;exitX=0.5;exitY=1;exitDx=0;exitDy=0;entryX=0.5;entryY=0;entryDx=0;entryDy=0;" edge="1" parent="1" source="0EOOm2tPZXN1vuOqis5f-26" target="0EOOm2tPZXN1vuOqis5f-18">
          <mxGeometry relative="1" as="geometry">
            <Array as="points">
              <mxPoint x="280" y="190" />
              <mxPoint x="380" y="190" />
            </Array>
          </mxGeometry>
        </mxCell>
        <mxCell id="0EOOm2tPZXN1vuOqis5f-26" value="不同任务" style="rounded=0;whiteSpace=wrap;html=1;" vertex="1" parent="1">
          <mxGeometry x="250" y="160" width="60" height="20" as="geometry" />
        </mxCell>
        <mxCell id="0EOOm2tPZXN1vuOqis5f-31" value="" style="shape=singleArrow;direction=south;whiteSpace=wrap;html=1;fillColor=#FF0000;" vertex="1" parent="1">
          <mxGeometry x="170.5" y="295" width="16" height="30" as="geometry" />
        </mxCell>
        <mxCell id="0EOOm2tPZXN1vuOqis5f-32" value="" style="shape=singleArrow;direction=south;whiteSpace=wrap;html=1;fillColor=#FF0000;" vertex="1" parent="1">
          <mxGeometry x="272" y="295" width="16" height="30" as="geometry" />
        </mxCell>
        <mxCell id="0EOOm2tPZXN1vuOqis5f-33" value="" style="shape=singleArrow;direction=south;whiteSpace=wrap;html=1;fillColor=#FF0000;" vertex="1" parent="1">
          <mxGeometry x="372" y="295" width="16" height="30" as="geometry" />
        </mxCell>
        <mxCell id="0EOOm2tPZXN1vuOqis5f-34" value="模型" style="shape=cube;whiteSpace=wrap;html=1;boundedLbl=1;backgroundOutline=1;darkOpacity=0.05;darkOpacity2=0.1;size=10;" vertex="1" parent="1">
          <mxGeometry x="147" y="330" width="66.5" height="30" as="geometry" />
        </mxCell>
        <mxCell id="0EOOm2tPZXN1vuOqis5f-35" value="模型" style="shape=cube;whiteSpace=wrap;html=1;boundedLbl=1;backgroundOutline=1;darkOpacity=0.05;darkOpacity2=0.1;size=10;" vertex="1" parent="1">
          <mxGeometry x="246.75" y="330" width="66.5" height="30" as="geometry" />
        </mxCell>
        <mxCell id="0EOOm2tPZXN1vuOqis5f-36" value="模型" style="shape=cube;whiteSpace=wrap;html=1;boundedLbl=1;backgroundOutline=1;darkOpacity=0.05;darkOpacity2=0.1;size=10;" vertex="1" parent="1">
          <mxGeometry x="346.75" y="330" width="66.5" height="30" as="geometry" />
        </mxCell>
        <mxCell id="0EOOm2tPZXN1vuOqis5f-37" value="&lt;font style=&quot;font-size: 16px;&quot;&gt;（a）传统机器学习的学习过程&lt;/font&gt;" style="text;html=1;align=center;verticalAlign=middle;whiteSpace=wrap;rounded=0;" vertex="1" parent="1">
          <mxGeometry x="150" y="370" width="240" height="30" as="geometry" />
        </mxCell>
        <mxCell id="0EOOm2tPZXN1vuOqis5f-38" value="" style="ellipse;whiteSpace=wrap;html=1;aspect=fixed;" vertex="1" parent="1">
          <mxGeometry x="450" y="204" width="80" height="80" as="geometry" />
        </mxCell>
        <mxCell id="0EOOm2tPZXN1vuOqis5f-39" value="" style="ellipse;whiteSpace=wrap;html=1;aspect=fixed;fillStyle=auto;fillColor=#FF0000;" vertex="1" parent="1">
          <mxGeometry x="476.5" y="211" width="20" height="20" as="geometry" />
        </mxCell>
        <mxCell id="0EOOm2tPZXN1vuOqis5f-40" value="" style="ellipse;whiteSpace=wrap;html=1;aspect=fixed;fillStyle=auto;fillColor=#FF0000;" vertex="1" parent="1">
          <mxGeometry x="456.5" y="241" width="20" height="20" as="geometry" />
        </mxCell>
        <mxCell id="0EOOm2tPZXN1vuOqis5f-41" value="" style="ellipse;whiteSpace=wrap;html=1;aspect=fixed;fillStyle=auto;fillColor=#FF0000;" vertex="1" parent="1">
          <mxGeometry x="503.5" y="228" width="20" height="20" as="geometry" />
        </mxCell>
        <mxCell id="0EOOm2tPZXN1vuOqis5f-42" value="" style="ellipse;whiteSpace=wrap;html=1;aspect=fixed;fillStyle=auto;fillColor=#FF0000;" vertex="1" parent="1">
          <mxGeometry x="483.5" y="257" width="20" height="20" as="geometry" />
        </mxCell>
        <mxCell id="0EOOm2tPZXN1vuOqis5f-43" value="" style="ellipse;whiteSpace=wrap;html=1;aspect=fixed;" vertex="1" parent="1">
          <mxGeometry x="538" y="204" width="80" height="80" as="geometry" />
        </mxCell>
        <mxCell id="0EOOm2tPZXN1vuOqis5f-44" value="" style="triangle;whiteSpace=wrap;html=1;rotation=25;fillColor=#FF3333;container=0;" vertex="1" parent="1">
          <mxGeometry x="556" y="213.25" width="20" height="27" as="geometry" />
        </mxCell>
        <mxCell id="0EOOm2tPZXN1vuOqis5f-45" value="" style="triangle;whiteSpace=wrap;html=1;rotation=25;fillColor=#FF3333;container=0;" vertex="1" parent="1">
          <mxGeometry x="586" y="223.75" width="20" height="27" as="geometry" />
        </mxCell>
        <mxCell id="0EOOm2tPZXN1vuOqis5f-46" value="" style="triangle;whiteSpace=wrap;html=1;rotation=25;fillColor=#FF3333;container=0;" vertex="1" parent="1">
          <mxGeometry x="556" y="241.5" width="20" height="27" as="geometry" />
        </mxCell>
        <mxCell id="0EOOm2tPZXN1vuOqis5f-47" value="" style="triangle;whiteSpace=wrap;html=1;rotation=25;fillColor=#FF3333;container=0;" vertex="1" parent="1">
          <mxGeometry x="586" y="252" width="20" height="27" as="geometry" />
        </mxCell>
        <mxCell id="0EOOm2tPZXN1vuOqis5f-48" value="" style="ellipse;whiteSpace=wrap;html=1;aspect=fixed;" vertex="1" parent="1">
          <mxGeometry x="650" y="205" width="80" height="80" as="geometry" />
        </mxCell>
        <mxCell id="0EOOm2tPZXN1vuOqis5f-49" value="" style="rhombus;whiteSpace=wrap;html=1;fillColor=#FF0000;" vertex="1" parent="1">
          <mxGeometry x="669" y="214.25" width="20" height="20" as="geometry" />
        </mxCell>
        <mxCell id="0EOOm2tPZXN1vuOqis5f-50" value="" style="rhombus;whiteSpace=wrap;html=1;fillColor=#FF0000;" vertex="1" parent="1">
          <mxGeometry x="695" y="224.25" width="20" height="20" as="geometry" />
        </mxCell>
        <mxCell id="0EOOm2tPZXN1vuOqis5f-51" value="" style="rhombus;whiteSpace=wrap;html=1;fillColor=#FF0000;" vertex="1" parent="1">
          <mxGeometry x="665" y="242.5" width="20" height="20" as="geometry" />
        </mxCell>
        <mxCell id="0EOOm2tPZXN1vuOqis5f-52" value="" style="rhombus;whiteSpace=wrap;html=1;fillColor=#FF0000;" vertex="1" parent="1">
          <mxGeometry x="690" y="252.5" width="20" height="20" as="geometry" />
        </mxCell>
        <mxCell id="0EOOm2tPZXN1vuOqis5f-58" style="edgeStyle=orthogonalEdgeStyle;rounded=0;orthogonalLoop=1;jettySize=auto;html=1;exitX=0.5;exitY=1;exitDx=0;exitDy=0;entryX=0.5;entryY=0;entryDx=0;entryDy=0;" edge="1" parent="1" source="0EOOm2tPZXN1vuOqis5f-55" target="0EOOm2tPZXN1vuOqis5f-53">
          <mxGeometry relative="1" as="geometry" />
        </mxCell>
        <mxCell id="0EOOm2tPZXN1vuOqis5f-55" value="原始任务" style="rounded=0;whiteSpace=wrap;html=1;" vertex="1" parent="1">
          <mxGeometry x="503.5" y="160" width="60" height="20" as="geometry" />
        </mxCell>
        <mxCell id="0EOOm2tPZXN1vuOqis5f-59" style="edgeStyle=orthogonalEdgeStyle;rounded=0;orthogonalLoop=1;jettySize=auto;html=1;exitX=0.5;exitY=1;exitDx=0;exitDy=0;entryX=0.5;entryY=0;entryDx=0;entryDy=0;" edge="1" parent="1" source="0EOOm2tPZXN1vuOqis5f-57" target="0EOOm2tPZXN1vuOqis5f-48">
          <mxGeometry relative="1" as="geometry" />
        </mxCell>
        <mxCell id="0EOOm2tPZXN1vuOqis5f-57" value="目标任务" style="rounded=0;whiteSpace=wrap;html=1;" vertex="1" parent="1">
          <mxGeometry x="660" y="160" width="60" height="20" as="geometry" />
        </mxCell>
        <mxCell id="0EOOm2tPZXN1vuOqis5f-60" value="" style="shape=singleArrow;direction=south;whiteSpace=wrap;html=1;fillColor=#FF0000;" vertex="1" parent="1">
          <mxGeometry x="525.5" y="295" width="16" height="30" as="geometry" />
        </mxCell>
        <mxCell id="0EOOm2tPZXN1vuOqis5f-62" value="" style="strokeWidth=2;html=1;shape=mxgraph.flowchart.database;whiteSpace=wrap;" vertex="1" parent="1">
          <mxGeometry x="496.5" y="330" width="75" height="30" as="geometry" />
        </mxCell>
        <mxCell id="0EOOm2tPZXN1vuOqis5f-63" value="知识库" style="text;html=1;align=center;verticalAlign=middle;whiteSpace=wrap;rounded=0;" vertex="1" parent="1">
          <mxGeometry x="504" y="334" width="60" height="30" as="geometry" />
        </mxCell>
        <mxCell id="0EOOm2tPZXN1vuOqis5f-64" value="模型" style="shape=cube;whiteSpace=wrap;html=1;boundedLbl=1;backgroundOutline=1;darkOpacity=0.05;darkOpacity2=0.1;size=10;" vertex="1" parent="1">
          <mxGeometry x="656.75" y="330" width="66.5" height="30" as="geometry" />
        </mxCell>
        <mxCell id="0EOOm2tPZXN1vuOqis5f-65" value="" style="shape=singleArrow;direction=south;whiteSpace=wrap;html=1;fillColor=#FF0000;" vertex="1" parent="1">
          <mxGeometry x="682" y="295" width="16" height="30" as="geometry" />
        </mxCell>
        <mxCell id="0EOOm2tPZXN1vuOqis5f-66" value="" style="shape=singleArrow;direction=south;whiteSpace=wrap;html=1;fillColor=#FF0000;fontStyle=1;rotation=-90;" vertex="1" parent="1">
          <mxGeometry x="602" y="330" width="16" height="30" as="geometry" />
        </mxCell>
      </root>
    </mxGraphModel>
  </diagram>
</mxfile>
